# xmcd
#
# Track frame offsets:
#  150
#  3820
#  22756
#  41024
#  46869
#  64242
#  83592
#  100596
#  105604
#  121425
#  138939
#  161415
#  181207
#  202200
#  228242
#  245922
#  259856
#
# Disc length: 3675 seconds
#
# Revision: 6
# Processed by: cddbd v1.5PL3 Copyright (c) Steve Scherf et al.
# Submitted via: AltoMP3_Maker 3.0
#
DISCID=d60e5911
DTITLE=Usher - Confessions
DYEAR=1900
DGENRE=
TTITLE0=Intro
TTITLE1=Yeah! feat. Lil' Jon and Ludacris
TTITLE2=Throwback
TTITLE3=Confession (Interlude)
TTITLE4=Confession Part II
TTITLE5=Burn
TTITLE6=Caught Up
TTITLE7=Superstar (Interlude)
TTITLE8=Superstar
TTITLE9=Truth Hurts
TTITLE10=Simple Things
TTITLE11=Bad Girl
TTITLE12=That's What It's Made For
TTITLE13=Can U Handle It?
TTITLE14=Do It To Me
TTITLE15=Take Your Hand
TTITLE16=Follow Me
EXTD=
EXTT0=
EXTT1=
EXTT2=
EXTT3=
EXTT4=
EXTT5=
EXTT6=
EXTT7=
EXTT8=
EXTT9=
EXTT10=
EXTT11=
EXTT12=
EXTT13=
EXTT14=
EXTT15=
EXTT16=
PLAYORDER=
